{"title":"Alfa and Omega 2010 720p BRRip x264 Feel-Free","uid":6064119,"size":1897076479,"categoryP":"video","categoryS":"hd___movies","magnet":"?xt=urn:btih:3dd9013bf51b54f344fc26b13c6e0d2c84735456&amp;dn=Alfa+and+Omega+2010+720p+BRRip+x264+Feel-Free&amp;tr=udp%3A%2F%2Ftracker.openbittorrent.com%3A80&amp;tr=udp%3A%2F%2Fopen.demonii.com%3A1337&amp;tr=udp%3A%2F%2Ftracker.coppersurfer.tk%3A6969&amp;tr=udp%3A%2F%2Fexodus.desync.com%3A6969","seeders":1,"leechers":0,"uploader":"hiest","files":-1,"time":1293265421,"description":"Genre:Animation | Adventure | Comedy | Family\nLanguage:English\nIMDb:http://www.imdb.com/title/tt1213012/\nSource:BluRay x264-DNL\nSubtitles:Romana\n\n\nFormat : Matroska\nFile size : 1.76 GiB\nDuration : 1h 27mn\nOverall bit rate : 2 864 Kbps\n\n\nVideo\nFormat settings, CABAC : Yes\nFormat settings, ReFrames : 4 frames\nCodec ID : V_MPEG4/ISO/AVC\nDuration : 1h 27mn\nBit rate : 2 423 Kbps\nNominal bit rate : 2 600 Kbps\nWidth : 1 280 pixels\nHeight : 720 pixels\nDisplay aspect ratio : 16:9\nFrame rate mode : Variable\nFrame rate : 23.976 fps\nColor space : YUV\nChroma subsampling : 4:2:0\nBit depth : 8 bits\nScan type : Progressive\nBits/(Pixel*Frame) : 0.110\nStream size : 1.49 GiB (85%)\nWriting library : x264\n\n\nAudio\nID : 2\nFormat : AC-3\nFormat/Info : Audio Coding 3\nMode extension : CM (complete main)\nCodec ID : A_AC3\nDuration : 1h 27mn\nBit rate mode : Constant\nBit rate : 384 Kbps\nChannel(s) : 6 channels\nChannel positions : Front: L C R, Side: L R, LFE\nSampling rate : 48.0 KHz\nBit depth : 16 bits\nVideo delay : -1mn 5s\nStream size : 242 MiB (13%)\nLanguage : English\n\n\nPlot:\nTwo young wolves at opposite ends of their pack's social order are thrown together into a foreign land and need each other to return home, but love complicates everything\n\n\n\n\n\n\n\n================================== &lt;a href=&quot;\nhttp://thepiratebay.se/user/hiest&quot; rel=&quot;nofollow&quot; target=&quot;_NEW&quot;&gt;\nhttp://thepiratebay.se/user/hiest&lt;/a&gt;\n==================================","torrent":{"xt":"urn:btih:3dd9013bf51b54f344fc26b13c6e0d2c84735456","amp;dn":"Alfa+and+Omega+2010+720p+BRRip+x264+Feel-Free","amp;tr":["udp%3A%2F%2Ftracker.openbittorrent.com%3A80","udp%3A%2F%2Fopen.demonii.com%3A1337","udp%3A%2F%2Ftracker.coppersurfer.tk%3A6969","udp%3A%2F%2Fexodus.desync.com%3A6969"],"infoHash":"3dd9013bf51b54f344fc26b13c6e0d2c84735456","infoHashBuffer":{"type":"Buffer","data":[61,217,1,59,245,27,84,243,68,252,38,177,60,110,13,44,132,115,84,86]},"announce":[],"urlList":[]}}